<svg xmlns="http://www.w3.org/2000/svg" viewBox="0 0 62.51 63.02"><defs><style>.cls-1{fill:#f0b54a;}.cls-2{fill:#333;}</style></defs><title>人工智能</title><g id="图层_2" data-name="图层 2"><g id="图层_1-2" data-name="图层 1"><path class="cls-1" d="M21,28H11V24.48a9,9,0,1,1,10,0Z"/><path class="cls-2" d="M20.52,31h-9a2.5,2.5,0,0,1,0-5h9a2.5,2.5,0,0,1,0,5Zm-9-3a.5.5,0,0,0,0,1h9a.5.5,0,0,0,0-1Z"/><path class="cls-2" d="M19.52,34h-7a2.5,2.5,0,0,1,0-5h7a2.5,2.5,0,0,1,0,5Zm-7-3a.5.5,0,0,0,0,1h7a.5.5,0,0,0,0-1Z"/><rect class="cls-2" x="15.02" y="19" width="2" height="8"/><path class="cls-2" d="M16,20a3,3,0,1,1,3-3A3,3,0,0,1,16,20Zm0-4a1,1,0,1,0,1,1A1,1,0,0,0,16,16Z"/><path class="cls-2" d="M16,63l-5-8.75V32H21V54.27Zm-3-9.28L16,59l3-5.25V34H13Z"/><rect class="cls-2" x="12" y="53" width="8" height="2"/><rect class="cls-2" x="15" y="33" width="2" height="21"/><polygon class="cls-2" points="25.34 9.44 23.63 8.41 25.98 4.5 29.95 3.71 30.34 5.67 27.24 6.29 25.34 9.44"/><polygon class="cls-2" points="2.05 28.3 1.66 26.33 4.76 25.71 6.66 22.56 8.37 23.59 6.02 27.5 2.05 28.3"/><path class="cls-2" d="M4.73,27.35A16,16,0,0,1,21.92,1.14L21.18,3A14,14,0,0,0,6.1,25.9Z"/><path class="cls-2" d="M27.31,27.31,25.9,25.9a14,14,0,0,0,0-19.8l1.35-1.48a16,16,0,0,1,.07,22.69Z"/><path class="cls-2" d="M45,62H22V60H43V51H53V38.81l6.48-1.48L53.62,26.89l.06-.35a20.46,20.46,0,0,0-.14-7.71A21.15,21.15,0,0,0,32.72,2l0-2H33A23.16,23.16,0,0,1,55.5,18.42a22.46,22.46,0,0,1,.21,8.1l6.8,12.16L55,40.4V53H45Z"/></g></g></svg>