<svg xmlns="http://www.w3.org/2000/svg" viewBox="0 0 62 62"><defs><style>.cls-1{fill:#333;}.cls-2{fill:#f0b54a;}</style></defs><title>数字病例样本</title><g id="图层_2" data-name="图层 2"><g id="图层_1-2" data-name="图层 1"><path class="cls-1" d="M57,62H5a5,5,0,0,1-5-5V20a5,5,0,0,1,5-5H57a5,5,0,0,1,5,5V57A5,5,0,0,1,57,62ZM5,17a3,3,0,0,0-3,3V57a3,3,0,0,0,3,3H57a3,3,0,0,0,3-3V20a3,3,0,0,0-3-3Z"/><rect class="cls-1" x="4" y="32" width="2" height="8"/><rect class="cls-1" x="4" y="44" width="2" height="2"/><path class="cls-1" d="M55.5,42.5A3.5,3.5,0,1,1,59,39,3.5,3.5,0,0,1,55.5,42.5Zm0-5A1.5,1.5,0,1,0,57,39,1.5,1.5,0,0,0,55.5,37.5Z"/><rect class="cls-2" x="8" y="19" width="43" height="39"/><path class="cls-1" d="M21,35a4,4,0,1,1,4-4A4,4,0,0,1,21,35Zm0-6a2,2,0,1,0,2,2A2,2,0,0,0,21,29Z"/><path class="cls-1" d="M25,39H23a2,2,0,0,0-4,0H17a4,4,0,0,1,8,0Z"/><path class="cls-1" d="M21,41a9,9,0,1,1,9-9A9,9,0,0,1,21,41Zm0-16a7,7,0,1,0,7,7A7,7,0,0,0,21,25Z"/><rect class="cls-1" x="32" y="23" width="15" height="2"/><rect class="cls-1" x="32" y="27" width="15" height="2"/><rect class="cls-1" x="32" y="31" width="15" height="2"/><rect class="cls-1" x="32" y="35" width="15" height="2"/><rect class="cls-1" x="32" y="39" width="15" height="2"/><path class="cls-1" d="M47,54H30V43H47ZM32,52H45V45H32Z"/><rect class="cls-1" x="12" y="44" width="16" height="2"/><rect class="cls-1" x="12" y="48" width="16" height="2"/><rect class="cls-1" x="12" y="52" width="16" height="2"/><path class="cls-1" d="M58,13a4,4,0,1,1,4-4A4,4,0,0,1,58,13Zm0-6a2,2,0,1,0,2,2A2,2,0,0,0,58,7Z"/><path class="cls-1" d="M4,8A4,4,0,1,1,8,4,4,4,0,0,1,4,8ZM4,2A2,2,0,1,0,6,4,2,2,0,0,0,4,2Z"/><rect class="cls-1" x="7" y="3" width="1.5" height="2"/><rect class="cls-1" x="10.5" y="3" width="2" height="2"/><polygon class="cls-1" points="17 5.5 15 5.5 15 5 14.5 5 14.5 3 17 3 17 5.5"/><rect class="cls-1" x="15" y="7.5" width="2" height="2"/><rect class="cls-1" x="15" y="11.5" width="2" height="1.5"/><rect class="cls-1" x="26" y="11.5" width="2" height="1.5"/><polygon class="cls-1" points="28 10.5 26 10.5 26 8 28.5 8 28.5 10 28 10 28 10.5"/><path class="cls-1" d="M50.72,10H47.94V8h2.78Zm-5.56,0H42.39V8h2.78Zm-5.56,0H36.83V8h2.78Zm-5.56,0H31.28V8h2.78Z"/><rect class="cls-1" x="53.5" y="8" width="1.5" height="2"/></g></g></svg>