<svg xmlns="http://www.w3.org/2000/svg" viewBox="0 0 62 62"><defs><style>.cls-1{fill:#333;}.cls-2{fill:#f0b54a;}</style></defs><title>普惠</title><g id="图层_2" data-name="图层 2"><g id="图层_1-2" data-name="图层 1"><polygon class="cls-1" points="6.62 49.14 0.8 47.98 1.2 46.02 5.38 46.86 7.07 42.63 8.93 43.37 6.62 49.14"/><circle class="cls-1" cx="9" cy="51" r="1"/><polygon class="cls-1" points="54.93 19.37 53.07 18.63 55.38 12.86 61.2 14.02 60.8 15.98 56.62 15.14 54.93 19.37"/><path class="cls-1" d="M31,62a31.07,31.07,0,0,1-19.48-6.89l1.26-1.55A29,29,0,0,0,55.06,14.83l1.66-1.12A31,31,0,0,1,31,62Z"/><path class="cls-1" d="M5.28,48.28A31,31,0,0,1,50.48,6.89L49.22,8.45A29,29,0,0,0,6.94,47.17Z"/><circle class="cls-1" cx="53" cy="11" r="1"/><polygon class="cls-1" points="37.37 27.28 13.03 27.28 13.03 18.06 37.37 18.06 37.37 20.06 15.03 20.06 15.03 25.28 37.37 25.28 37.37 27.28"/><rect class="cls-1" x="17.03" y="19.06" width="2" height="6.66"/><rect class="cls-1" x="21.03" y="19.06" width="2" height="6.66"/><rect class="cls-1" x="25.03" y="19.06" width="2" height="6.66"/><rect class="cls-1" x="29.03" y="19.34" width="2" height="6.66"/><rect class="cls-1" x="33.03" y="19.34" width="2" height="6.66"/><rect class="cls-1" x="37.03" y="18.06" width="2" height="9.22"/><polygon class="cls-1" points="34.37 36.5 10.03 36.5 10.03 27.28 34.37 27.28 34.37 29.28 12.03 29.28 12.03 34.5 34.37 34.5 34.37 36.5"/><rect class="cls-1" x="14.03" y="28.28" width="2" height="6.66"/><rect class="cls-1" x="18.03" y="28.28" width="2" height="6.66"/><rect class="cls-1" x="22.03" y="28.28" width="2" height="6.66"/><rect class="cls-1" x="26.03" y="28.56" width="2" height="6.66"/><rect class="cls-1" x="30.03" y="28.56" width="2" height="6.66"/><rect class="cls-1" x="34.03" y="27.28" width="2" height="9.22"/><polygon class="cls-1" points="38.78 45.72 14.45 45.72 14.45 36.5 38.78 36.5 38.78 38.5 16.45 38.5 16.45 43.72 38.78 43.72 38.78 45.72"/><rect class="cls-1" x="18.45" y="37.5" width="2" height="6.66"/><rect class="cls-1" x="22.45" y="37.5" width="2" height="6.66"/><rect class="cls-1" x="26.45" y="37.5" width="2" height="6.66"/><rect class="cls-1" x="30.45" y="37.78" width="2" height="6.66"/><rect class="cls-1" x="34.45" y="37.78" width="2" height="6.66"/><rect class="cls-1" x="38.45" y="36.5" width="2" height="9.22"/><path class="cls-2" d="M41,48A13,13,0,1,1,54,35,13,13,0,0,1,41,48Z"/><path class="cls-1" d="M43.5,43h-5A4.5,4.5,0,0,1,34,38.5V38h2v.5A2.5,2.5,0,0,0,38.5,41h5a2.5,2.5,0,0,0,0-5h-5a4.5,4.5,0,0,1,0-9h5A4.5,4.5,0,0,1,48,31.5V32H46v-.5A2.5,2.5,0,0,0,43.5,29h-5a2.5,2.5,0,0,0,0,5h5a4.5,4.5,0,0,1,0,9Z"/><rect class="cls-1" x="40" y="25" width="2" height="3"/><rect class="cls-1" x="40" y="42" width="2" height="3"/></g></g></svg>