<svg xmlns="http://www.w3.org/2000/svg" viewBox="0 0 62 62.25"><defs><style>.cls-1{fill:#333;}.cls-2{fill:#f0b54a;}</style></defs><title>科室内外协作</title><g id="图层_2" data-name="图层 2"><g id="图层_1-2" data-name="图层 1"><path class="cls-1" d="M47.2,62.25,48.95,57H23.84A3.85,3.85,0,0,1,20,53.16V40h2V53.16A1.85,1.85,0,0,0,23.84,55H51.72l-.92,2.75L55.39,55h2.77A1.85,1.85,0,0,0,60,53.16V36.84A1.85,1.85,0,0,0,58.16,35H37V33H58.16A3.85,3.85,0,0,1,62,36.84V53.16A3.85,3.85,0,0,1,58.16,57H55.94Z"/><path class="cls-2" d="M23,23H38V37.16A3.85,3.85,0,0,1,34.16,41H33l2,5-9-5H3.84A3.85,3.85,0,0,1,0,37.16V20.84A3.85,3.85,0,0,1,3.84,17H21v4Z"/><path class="cls-1" d="M47.2,29.25,48.95,24H23.84A3.85,3.85,0,0,1,20,20.16V3.84A3.85,3.85,0,0,1,23.84,0H58.16A3.85,3.85,0,0,1,62,3.84V20.16A3.85,3.85,0,0,1,58.16,24H55.94ZM23.84,2A1.85,1.85,0,0,0,22,3.84V20.16A1.85,1.85,0,0,0,23.84,22H51.72l-.92,2.75L55.39,22h2.77A1.85,1.85,0,0,0,60,20.16V3.84A1.85,1.85,0,0,0,58.16,2Z"/><rect class="cls-1" x="25" y="6" width="32" height="2"/><rect class="cls-1" x="25" y="11" width="32" height="2"/><rect class="cls-1" x="25" y="16" width="27" height="2"/><rect class="cls-1" x="55" y="16" width="2" height="2"/><rect class="cls-1" x="5" y="23" width="13" height="2"/><rect class="cls-1" x="5" y="28" width="28" height="2"/><rect class="cls-1" x="5" y="33" width="23" height="2"/><rect class="cls-1" x="31" y="33" width="2" height="2"/><rect class="cls-1" x="41" y="39" width="16" height="2"/><rect class="cls-1" x="38" y="44" width="19" height="2"/><rect class="cls-1" x="25" y="49" width="27" height="2"/><rect class="cls-1" x="55" y="49" width="2" height="2"/></g></g></svg>