<svg xmlns="http://www.w3.org/2000/svg" viewBox="0 0 62.07 62"><defs><style>.cls-1{fill:#333;}.cls-2{fill:none;stroke:#333;stroke-linejoin:round;stroke-width:2px;}.cls-3{fill:#f0b54a;}</style></defs><title>精准</title><g id="图层_2" data-name="图层 2"><g id="图层_1-2" data-name="图层 1"><path class="cls-1" d="M24.13,2l22.13,4.9V37.41c0,4.24-2.39,10.2-5.21,13q-.34.34-.71.67A38.82,38.82,0,0,1,24.12,60a38.52,38.52,0,0,1-16.2-8.86q-.37-.33-.71-.67C4.39,47.61,2,41.65,2,37.41V6.95L24.13,2m0-2L0,5.34V37.41C0,42,2.53,48.59,5.8,51.84q.37.37.78.74A39.63,39.63,0,0,0,24.13,62a39.63,39.63,0,0,0,17.54-9.42q.41-.37.78-.74c3.27-3.25,5.8-9.82,5.8-14.43V5.34L24.13,0Z"/><path class="cls-1" d="M24.13,15.24l11.8,2.61V34.75a11.52,11.52,0,0,1-2.71,6.8l-.38.36a21.84,21.84,0,0,1-8.71,4.85,21.84,21.84,0,0,1-8.71-4.85L15,41.55a11.52,11.52,0,0,1-2.71-6.8V17.85l11.8-2.61m0-2.39L10,16V34.75a13.72,13.72,0,0,0,3.4,8.45l.46.43a23.2,23.2,0,0,0,10.27,5.52A23.2,23.2,0,0,0,34.4,43.63l.46-.43a13.72,13.72,0,0,0,3.4-8.45V16L24.13,12.85Z"/><line class="cls-2" x1="24.13" y1="1.04" x2="24.13" y2="62"/><path class="cls-3" d="M24.13,43.85a16.43,16.43,0,0,0,7.27-3.91l.32-.31a9.72,9.72,0,0,0,2.41-6V20.36l-10-2.21-10,2.21V33.66a9.72,9.72,0,0,0,2.41,6l.32.31A16.43,16.43,0,0,0,24.13,43.85Z"/><line class="cls-2" x1="62" y1="32.57" x2="28.17" y2="32.57"/><polyline class="cls-2" points="60.82 28.32 56.49 32.65 60.49 36.65"/><polyline class="cls-2" points="54.76 28.32 50.43 32.65 54.43 36.65"/><line class="cls-2" x1="61.65" y1="14.79" x2="29.92" y2="26.5"/><polyline class="cls-2" points="59.07 11.21 56.51 16.77 61.65 19.14"/><polyline class="cls-2" points="53.39 13.31 50.83 18.87 55.96 21.23"/></g></g></svg>