<svg xmlns="http://www.w3.org/2000/svg" viewBox="0 0 62.12 62"><defs><style>.cls-1{fill:#333;}.cls-2{fill:#f0b54a;}</style></defs><title>远程会诊</title><g id="图层_2" data-name="图层 2"><g id="图层_1-2" data-name="图层 1"><path class="cls-1" d="M31.12,38a19,19,0,1,1,19-19A19,19,0,0,1,31.12,38Zm0-36a17,17,0,1,0,17,17A17,17,0,0,0,31.12,2Z"/><path class="cls-1" d="M31.53,37.91l-.82-1.82c.37-.17,9-4.27,9-17.09,0-.84,0-1.67-.11-2.46l2-.19c.08.85.12,1.74.12,2.64C41.72,33.16,31.95,37.72,31.53,37.91Z"/><path class="cls-1" d="M39,13a17.11,17.11,0,0,0-8.3-11.13L31.53.09c.29.13,7.07,3.28,9.41,12.46Z"/><path class="cls-1" d="M30.71,37.91c-.42-.19-10.19-4.75-10.19-18.91a23,23,0,0,1,3.3-12.42l1.7,1.06a21,21,0,0,0-3,11.36c0,12.88,8.92,17,9,17.09Z"/><path class="cls-1" d="M27.64,4.9,26.19,3.53A16,16,0,0,1,30.71.09l.82,1.82L31.12,1l.41.91A14.31,14.31,0,0,0,27.64,4.9Z"/><rect class="cls-1" x="30.12" y="1" width="2" height="36"/><rect class="cls-1" x="13.12" y="18" width="36" height="2"/><path class="cls-1" d="M31.12,12.2A18.9,18.9,0,0,1,17.88,6.82l1.39-1.43A16.91,16.91,0,0,0,31.12,10.2,16.91,16.91,0,0,0,43,5.38l1.39,1.43A18.9,18.9,0,0,1,31.12,12.2Z"/><path class="cls-1" d="M19.27,32.62l-1.39-1.43a19.12,19.12,0,0,1,7.49-4.5L26,28.59A17.11,17.11,0,0,0,19.27,32.62Z"/><path class="cls-1" d="M43,32.62a17,17,0,0,0-13.54-4.73l-.2-2c.63-.06,1.26-.09,1.89-.09a18.9,18.9,0,0,1,13.25,5.38Z"/><path class="cls-2" d="M25.69,8.38a2.8,2.8,0,1,1,2.8-2.8A2.8,2.8,0,0,1,25.69,8.38Z"/><path class="cls-2" d="M40.4,17.39a2.8,2.8,0,1,1,2.8-2.8A2.8,2.8,0,0,1,40.4,17.39Z"/><path class="cls-2" d="M27.47,30a2.8,2.8,0,1,1,2.8-2.8A2.8,2.8,0,0,1,27.47,30Z"/><path class="cls-1" d="M62.12,62h-14V50h14Zm-12-2h10V52h-10Z"/><path class="cls-1" d="M51.12,51h-2V43.7l4-6V36a3,3,0,0,1,6,0v7h-2V36a1,1,0,0,0-2,0v2.3l-4,6Z"/><path class="cls-1" d="M50.41,42.71l-3.5-3.5a3.12,3.12,0,0,1,0-4.41,3.19,3.19,0,0,1,4.41,0L54.52,38,53.1,39.4l-3.19-3.19a1.12,1.12,0,0,0-1.59,1.59l3.5,3.5Z"/><path class="cls-1" d="M52.41,38.71l-3.5-3.5a3.12,3.12,0,0,1,0-4.41,3.19,3.19,0,0,1,4.41,0L56,33.47l-1.41,1.41-2.68-2.68a1.15,1.15,0,0,0-1.59,0,1.12,1.12,0,0,0,0,1.59l3.5,3.5Z"/><path class="cls-1" d="M54.41,34.71l-3.5-3.5a3.12,3.12,0,0,1,4.41-4.41l-1.41,1.41a1.12,1.12,0,0,0-1.59,1.59l3.5,3.5Z"/><path class="cls-1" d="M61.1,51.2l-2-.39,1-4.9V40.1l-2-9.9-.69-4.8a1,1,0,0,0-1.29-.87,1,1,0,0,0-.78,1.17L56.12,31v3h-2V31.07L53.39,26a3.05,3.05,0,0,1,6-.86l.68,4.75,2,10.14,0,6.2Z"/><path class="cls-1" d="M14,62H0V50H14ZM2,60H12V52H2Z"/><path class="cls-1" d="M13,51H11V44.3l-4-6V36a1,1,0,1,0-2,0v7H3V36a3,3,0,1,1,6,0v1.7l4,6Z"/><path class="cls-1" d="M11.71,42.71l-1.41-1.41,3.5-3.5a1.12,1.12,0,1,0-1.59-1.59L9,39.4,7.6,38l3.19-3.19a3.12,3.12,0,0,1,4.41,4.41Z"/><path class="cls-1" d="M9.71,38.71,8.29,37.29l3.5-3.5a1.12,1.12,0,0,0-1.59-1.59L7.53,34.89,6.11,33.47l2.68-2.68a3.12,3.12,0,1,1,4.41,4.41Z"/><path class="cls-1" d="M7.71,34.71,6.29,33.29l3.5-3.5a1.12,1.12,0,0,0-1.59-1.59L6.79,26.79a3.12,3.12,0,1,1,4.41,4.41Z"/><path class="cls-1" d="M1,51.2,0,46l0-6.2,2-10,.67-4.69a3.05,3.05,0,0,1,6,.86L8,31.07V34H6V30.86l.74-5.17a1.05,1.05,0,0,0-1.63-1,1,1,0,0,0-.45.72L4,30.14l-2,10v5.8l1,4.9Z"/></g></g></svg>