<svg xmlns="http://www.w3.org/2000/svg" viewBox="0 0 62 62"><defs><style>.cls-1{fill:#333;}.cls-2{fill:#f0b54a;}</style></defs><title>高效</title><g id="图层_2" data-name="图层 2"><g id="图层_1-2" data-name="图层 1"><polygon class="cls-1" points="0 48.11 4.5 36.81 4.5 34 3.41 22 15.55 22 15.55 24 5.59 24 6.48 33.91 6.49 37.19 3.03 45.89 15.26 45.01 54.45 33.1 28.27 26.69 28.75 24.74 62 32.9 15.51 47 0 48.11"/><polygon class="cls-1" points="6.49 52.18 6.49 46 8.48 46 8.48 49.82 13.19 49.03 56.87 32.07 57.59 33.93 13.62 50.99 6.49 52.18"/><polygon class="cls-1" points="5.57 38 5.42 36 28.39 34.19 28.36 32.55 56.21 32 56.31 34 5.57 38"/><rect class="cls-1" x="19.3" y="32.68" width="5.28" height="2" transform="translate(-0.65 0.43) rotate(-1.11)"/><rect class="cls-1" x="5.49" y="32.9" width="10.06" height="2" transform="translate(-0.66 0.21) rotate(-1.11)"/><path class="cls-1" d="M19.42,10a5,5,0,1,1,5-5A5,5,0,0,1,19.42,10Zm0-8a3,3,0,1,0,3,3A3,3,0,0,0,19.42,2Z"/><path class="cls-1" d="M16.44,36h-2V15a5,5,0,0,1,5-5v2a3,3,0,0,0-3,3Z"/><path class="cls-1" d="M20.42,35.68h-2V25h7v7a1,1,0,1,0,2,0V25a2,2,0,0,0-2-2h-3V15h2v6h1a4,4,0,0,1,3.94,4v7a3,3,0,1,1-6,0V27h-3Z"/><path class="cls-1" d="M31.36,16H19.42V14H31.36a1,1,0,0,0,0-2H19.42V10H31.36a3,3,0,0,1,0,6Z"/><rect class="cls-1" x="42.3" y="45" width="18.9" height="2"/><rect class="cls-1" x="37.33" y="45" width="2.98" height="2"/><rect class="cls-1" x="31.36" y="50" width="25.87" height="2"/><rect class="cls-1" x="26.39" y="50" width="2.98" height="2"/><rect class="cls-1" x="27.38" y="55" width="25.87" height="2"/><rect class="cls-1" x="15.44" y="55" width="9.95" height="2"/><rect class="cls-1" x="16.44" y="60" width="32.83" height="2"/><rect class="cls-1" x="11.46" y="60" width="2.98" height="2"/><rect class="cls-2" x="35.34" y="43" width="23.88" height="2"/><rect class="cls-2" x="24.4" y="48" width="30.84" height="2"/><rect class="cls-2" x="13.45" y="53" width="37.81" height="2"/><rect class="cls-2" x="9.47" y="58" width="37.81" height="2"/></g></g></svg>